<svg xmlns="http://www.w3.org/2000/svg" width="25" height="25" fill="none"><path fill="url(#a)" d="M14.62 13.858h1.352v-3.47c0-.71-.177-1.272-.533-1.69-.369-.416-.85-.63-1.448-.63-.691 0-1.214.27-1.563.811l-.337.575-.337-.575c-.349-.54-.872-.811-1.564-.811-.598 0-1.08.214-1.448.63-.356.418-.534.981-.534 1.69v3.47H9.56v-3.367c0-.71.294-1.071.881-1.071.65 0 .976.428.976 1.273v1.843h1.345v-1.843c0-.845.325-1.273.975-1.273.591 0 .882.361.882 1.07v3.368Z"/><path fill="url(#b)" fill-rule="evenodd" d="M12.47 24.94c6.887 0 12.47-5.583 12.47-12.47C24.94 5.583 19.358 0 12.47 0 5.583 0 0 5.583 0 12.47c0 6.887 5.583 12.47 12.47 12.47Zm2.68-18.773c1.42.214 2.617 1.314 2.802 2.711.08.831.04 2.08.02 2.686-.004.151-.008.262-.008.317 0 .082-.011.826-.016.905-.124 1.996-1.349 2.784-2.635 3.035-.014.005-.03.008-.046.01a.528.528 0 0 0-.012.003c-.816.162-1.69.205-2.518.229-.198.005-.396.005-.594.005-.824 0-1.646-.099-2.447-.295a.027.027 0 0 0-.033.016.03.03 0 0 0-.002.013c.023.265.08.526.169.776.111.29.499.985 1.94.985.838.002 1.673-.098 2.488-.295a.028.028 0 0 1 .032.015.03.03 0 0 1 .003.012v.98a.032.032 0 0 1-.013.024c-.254.187-.596.297-.895.394l-.042.013a5.54 5.54 0 0 1-.415.116 6.916 6.916 0 0 1-3.833-.206c-1.152-.411-2.329-1.42-2.62-2.63a14.513 14.513 0 0 1-.327-1.994c-.066-.734-.088-1.47-.11-2.207a98.39 98.39 0 0 0-.027-.832c-.027-.708-.012-1.48.135-2.176.306-1.413 1.566-2.402 2.946-2.61l.097-.016C9.462 6.1 10.032 6 11.885 6h.016c2.102 0 3.01.131 3.249.167Z" clip-rule="evenodd"/><defs><linearGradient id="a" x1="3.526" x2="21.875" y1="3.653" y2="23.617" gradientUnits="userSpaceOnUse"><stop stop-color="#FFAD33"/><stop offset="1" stop-color="#FF8A00"/></linearGradient><linearGradient id="b" x1="3.526" x2="21.875" y1="3.653" y2="23.617" gradientUnits="userSpaceOnUse"><stop stop-color="#FFAD33"/><stop offset="1" stop-color="#FF8A00"/></linearGradient></defs></svg>